<?xml version="1.0" encoding="iso-8859-1"?>
<!-- Generator: Adobe Illustrator 19.0.0, SVG Export Plug-In . SVG Version: 6.00 Build 0)  -->
<svg version="1.1" id="Layer_1" xmlns="http://www.w3.org/2000/svg" xmlns:xlink="http://www.w3.org/1999/xlink" x="0px" y="0px"
	 viewBox="0 0 512.001 512.001" style="enable-background:new 0 0 512.001 512.001;" xml:space="preserve">
<path style="fill:#3797D3;" d="M412.859,386.179l-65.906-114.154c-1.398-2.421-2.134-5.168-2.134-7.963v-160.31
	c0-7.209,4.842-13.519,11.805-15.384c6.964-1.866,14.312,1.179,17.916,7.421L509.866,330.18c4.396,7.614,1.786,17.359-5.83,21.757
	l-69.42,40.072C426.995,396.406,417.257,393.797,412.859,386.179z"/>
<rect x="422.3" y="262.131" transform="matrix(0.5 0.866 -0.866 0.5 494.6182 -220.4488)" style="fill:#FFAF00;" width="31.853" height="112.006"/>
<path style="fill:#FF9B00;" d="M256,158.677c1.062,0-8.048,0.806-13.3-7.165l-58.294-88.491
	c-6.97-10.582,0.648-24.688,13.301-24.688h116.585c8.796,0,15.927,7.131,15.927,15.927v0.021c0,3.115-0.913,6.163-2.628,8.763
	L269.3,151.512C266.354,155.985,261.356,158.677,256,158.677z"/>
<g>
	<path style="fill:#FF7B00;" d="M314.293,38.333H256v120.344c5.356,0,10.353-2.693,13.3-7.165l58.292-88.468
		c1.714-2.601,2.628-5.648,2.628-8.763V54.26C330.22,45.464,323.089,38.333,314.293,38.333z"/>
	<path style="fill:#FF7B00;" d="M256,158.677v0.015C256.087,158.685,256.107,158.677,256,158.677z"/>
</g>
<path style="fill:#48AEE2;" d="M346.92,473.67H165.082c-8.796,0-15.927-7.131-15.927-15.927v-49.6
	c0-8.796,7.131-15.927,15.927-15.927H346.92c8.796,0,15.927,7.131,15.927,15.927v49.6C362.847,466.539,355.716,473.67,346.92,473.67
	z"/>
<path style="fill:#3797D3;" d="M346.92,392.216h-90.918v81.454h90.918c8.796,0,15.927-7.131,15.927-15.927v-49.6
	C362.847,399.347,355.716,392.216,346.92,392.216z"/>
<path style="fill:#48AEE2;" d="M77.386,392.009l-69.42-40.072c-7.614-4.397-10.228-14.141-5.83-21.757L137.461,95.788
	c3.604-6.243,10.948-9.286,17.916-7.421c6.963,1.866,11.805,8.176,11.805,15.384v160.31c0,2.796-0.736,5.543-2.134,7.963
	L99.142,386.179C94.745,393.793,85.006,396.408,77.386,392.009z"/>
<path style="fill:#FFC72D;" d="M360.757,424.07H151.254c-8.796,0-15.927-7.131-15.927-15.927V103.751
	c0-8.796,7.131-15.927,15.927-15.927h46.454c3.154,0,6.236,0.935,8.856,2.69L256,123.588l49.436-33.075
	c2.62-1.753,5.703-2.69,8.856-2.69h46.464c8.796,0,15.927,7.131,15.927,15.927v304.392
	C376.684,416.939,369.554,424.07,360.757,424.07z"/>
<path style="fill:#FFAF00;" d="M360.757,87.824h-46.464c-3.154,0-6.236,0.935-8.856,2.69L256,123.588V424.07h104.757
	c8.796,0,15.927-7.131,15.927-15.927V103.751C376.684,94.955,369.554,87.824,360.757,87.824z"/>
<rect x="57.845" y="262.115" transform="matrix(0.5 -0.866 0.866 0.5 -238.6112 222.9436)" style="fill:#FFC72D;" width="31.853" height="112.006"/>
<path style="fill:#FFAF00;" d="M318.867,39.026c-6.738-2.022-14.003,0.619-17.873,6.493l-44.991,68.282l-44.994-68.301
	c-3.87-5.875-11.136-8.517-17.873-6.496c-6.739,2.02-11.354,8.221-11.354,15.257v49.49c0,5.316,2.652,10.281,7.07,13.237
	l51.222,34.269V424.07h31.854V151.257l51.222-34.269c4.418-2.956,7.07-7.922,7.07-13.237V54.282
	C330.22,47.247,325.605,41.046,318.867,39.026z"/>
<path style="fill:#FF9B00;" d="M318.867,39.026c-6.738-2.022-14.003,0.619-17.873,6.493l-44.991,68.282l-0.001-0.002V424.07h15.927
	V151.257l51.222-34.269c4.418-2.956,7.07-7.922,7.07-13.237V54.282C330.22,47.247,325.605,41.046,318.867,39.026z"/>
<path style="fill:#3797D3;" d="M337.488,205.118h-26.364c-8.796,0-15.927-7.131-15.927-15.927s7.131-15.927,15.927-15.927h26.364
	c8.796,0,15.927,7.131,15.927,15.927S346.284,205.118,337.488,205.118z"/>
<g>
</g>
<g>
</g>
<g>
</g>
<g>
</g>
<g>
</g>
<g>
</g>
<g>
</g>
<g>
</g>
<g>
</g>
<g>
</g>
<g>
</g>
<g>
</g>
<g>
</g>
<g>
</g>
<g>
</g>
</svg>
