<?xml version="1.0" encoding="iso-8859-1"?>
<!-- Generator: Adobe Illustrator 19.0.0, SVG Export Plug-In . SVG Version: 6.00 Build 0)  -->
<svg version="1.1" id="Layer_1" xmlns="http://www.w3.org/2000/svg" xmlns:xlink="http://www.w3.org/1999/xlink" x="0px" y="0px"
	 viewBox="0 0 511.997 511.997" style="enable-background:new 0 0 511.997 511.997;" xml:space="preserve">
<g>
	<polygon style="fill:#424C66;" points="132.413,35.31 379.586,35.31 379.586,0 132.413,0 	"/>
	<g>
		<path style="fill:#556080;" d="M353.103,511.997l26.483-476.69H256v141.241c9.825,0,17.858,7.83,18.123,17.646l17.187,317.802
			H353.103z"/>
		<path style="fill:#556080;" d="M220.689,511.997l17.655-317.802c0.256-9.816,7.83-17.646,17.655-17.646V35.308H132.413
			l26.483,476.69H220.689z"/>
	</g>
	<g>
		<path style="fill:#8697CB;" d="M135.764,95.638c23.375-5.508,40.783-26.447,40.783-51.5c0-3.019-0.309-5.95-0.794-8.828H132.41
			L135.764,95.638z"/>
		<path style="fill:#8697CB;" d="M376.233,95.638c-23.367-5.508-40.783-26.447-40.783-51.5c0-3.019,0.309-5.95,0.794-8.828h43.343
			L376.233,95.638z"/>
		<path style="fill:#8697CB;" d="M203.034,326.618h-26.483c-4.882,0-8.828-3.955-8.828-8.828c0-4.873,3.946-8.828,8.828-8.828
			h26.483c4.882,0,8.828,3.955,8.828,8.828C211.862,322.663,207.916,326.618,203.034,326.618"/>
		<path style="fill:#8697CB;" d="M335.448,326.618h-26.483c-4.882,0-8.828-3.955-8.828-8.828c0-4.873,3.946-8.828,8.828-8.828
			h26.483c4.882,0,8.828,3.955,8.828,8.828C344.275,322.663,340.329,326.618,335.448,326.618"/>
		<path style="fill:#8697CB;" d="M344.275,185.377h-35.31c-4.882,0-8.828-3.955-8.828-8.828c0-4.873,3.946-8.828,8.828-8.828h35.31
			c4.882,0,8.828,3.955,8.828,8.828C353.103,181.422,349.157,185.377,344.275,185.377"/>
		<path style="fill:#8697CB;" d="M203.034,185.377h-35.31c-4.882,0-8.828-3.955-8.828-8.828c0-4.873,3.946-8.828,8.828-8.828h35.31
			c4.882,0,8.828,3.955,8.828,8.828C211.862,181.422,207.916,185.377,203.034,185.377"/>
	</g>
</g>
<g>
</g>
<g>
</g>
<g>
</g>
<g>
</g>
<g>
</g>
<g>
</g>
<g>
</g>
<g>
</g>
<g>
</g>
<g>
</g>
<g>
</g>
<g>
</g>
<g>
</g>
<g>
</g>
<g>
</g>
</svg>
