<?xml version="1.0" encoding="iso-8859-1"?>
<!-- Generator: Adobe Illustrator 19.0.0, SVG Export Plug-In . SVG Version: 6.00 Build 0)  -->
<svg version="1.1" id="Layer_1" xmlns="http://www.w3.org/2000/svg" xmlns:xlink="http://www.w3.org/1999/xlink" x="0px" y="0px"
	 viewBox="0 0 494.429 494.429" style="enable-background:new 0 0 494.429 494.429;" xml:space="preserve">
<circle style="fill:#FFBC00;" cx="234.414" cy="244.8" r="219.2"/>
<path style="fill:#FFAA00;" d="M80.014,89.6c85.6-85.6,224-85.6,309.6,0s85.6,224,0,309.6"/>
<path style="fill:#0C9686;" d="M76.014,347.2c0-1.6-1.6-4-2.4-4h-64c-0.8,0-2.4,2.4-2.4,4l0,0c0,1.6,1.6,4,2.4,4h63.2
	C74.414,351.2,76.014,348.8,76.014,347.2L76.014,347.2z"/>
<g>
	<path style="fill:#17CCAE;" d="M76.014,419.2c0-1.6-1.6-4-2.4-4h-64c-0.8,0-2.4,2.4-2.4,4l0,0c0,1.6,1.6,4,2.4,4h63.2
		C74.414,423.2,76.014,420.8,76.014,419.2L76.014,419.2z"/>
	<path style="fill:#17CCAE;" d="M110.414,494.4c-20,0.8-37.6-15.2-37.6-36c-0.8-16.8,12.8-30.4,29.6-31.2c13.6,0,24.8,10.4,25.6,24
		c0,11.2-8.8,20.8-20,20.8c-9.6,0-17.6-7.2-17.6-16.8c0-1.6,1.6-3.2,3.2-3.2s3.2,1.6,3.2,3.2c0,5.6,4.8,10.4,10.4,9.6
		c7.2,0,13.6-6.4,13.6-14.4c0-9.6-8.8-17.6-18.4-17.6c-12.8,0-23.2,11.2-22.4,24c0.8,16.8,14.4,29.6,31.2,28.8
		c20.8-0.8,37.6-18.4,37.6-39.2c-0.8-27.2-20.8-49.6-48-48.8c-1.6,0-5.6,0-5.6-1.6c0-1.6,4-6.4,5.6-6.4
		c30.4-0.8,53.6,26.4,55.2,56.8C155.214,472.8,135.214,493.6,110.414,494.4z"/>
	<path style="fill:#17CCAE;" d="M103.214,396c0,1.6-1.6,3.2-3.2,3.2h-81.6c-1.6,0-3.2-1.6-3.2-3.2v-0.8c0-2.4,1.6-4,3.2-4h80.8
		c1.6,0,3.2,1.6,3.2,3.2v1.6H103.214z"/>
</g>
<g>
	<path style="fill:#0C9686;" d="M110.414,272.8c-20-0.8-37.6,15.2-37.6,36c-0.8,16.8,12.8,30.4,29.6,31.2c13.6,0,24.8-10.4,25.6-24
		c0-11.2-8.8-20.8-20-20.8c-9.6,0-17.6,7.2-17.6,16.8c0,1.6,1.6,3.2,3.2,3.2s3.2-1.6,3.2-3.2c0-5.6,4.8-10.4,10.4-9.6
		c7.2,0,13.6,6.4,13.6,14.4c0,9.6-8.8,17.6-18.4,17.6c-12.8,0-23.2-11.2-22.4-24c0.8-16.8,14.4-29.6,31.2-28.8
		c20.8,0.8,37.6,18.4,37.6,39.2c-0.8,27.2-21.6,48.8-48.8,48c-1.6,0-4.8,0.8-4.8,2.4c0,1.6,3.2,5.6,4.8,5.6
		c30.4,0.8,54.4-25.6,56-56C155.214,294.4,135.214,273.6,110.414,272.8z"/>
	<path style="fill:#0C9686;" d="M102.414,371.2c0-1.6-1.6-4-3.2-4h-81.6c-1.6,0-3.2,2.4-3.2,4l0,0c0,1.6,1.6,4,3.2,4h81.6
		C100.814,375.2,102.414,372.8,102.414,371.2L102.414,371.2z"/>
	<circle style="fill:#0C9686;" cx="58.414" cy="327.2" r="3.2"/>
</g>
<circle style="fill:#17CCAE;" cx="58.414" cy="439.2" r="3.2"/>
<g>
	<circle style="fill:#0C9686;" cx="133.614" cy="383.2" r="3.2"/>
	<path style="fill:#0C9686;" d="M206.414,347.2c0-1.6-1.6-4-2.4-4h-63.2c-1.6,0-2.4,2.4-2.4,4l0,0c0,1.6,1.6,4,2.4,4h63.2
		C204.814,351.2,206.414,348.8,206.414,347.2L206.414,347.2z"/>
</g>
<g>
	<path style="fill:#17CCAE;" d="M207.214,417.6c0-1.6-1.6-2.4-2.4-2.4h-66.4c-1.6,0-2.4,1.6-2.4,2.4v2.4c0,1.6,1.6,2.4,2.4,2.4h66.4
		c1.6,0,2.4-1.6,2.4-2.4V417.6z"/>
	<path style="fill:#17CCAE;" d="M240.814,494.4c-20,0.8-37.6-15.2-37.6-36c-0.8-16.8,12.8-30.4,29.6-31.2c13.6,0,25.6,10.4,25.6,24
		c0,11.2-8.8,20.8-20,20.8c-9.6,0-17.6-7.2-17.6-16.8c0-1.6,1.6-3.2,3.2-3.2c1.6,0,3.2,1.6,3.2,3.2c0,5.6,4.8,10.4,10.4,9.6
		c7.2,0,13.6-6.4,13.6-14.4c0-9.6-8.8-17.6-18.4-17.6c-12.8,0-23.2,11.2-22.4,24c0.8,16.8,14.4,29.6,31.2,28.8
		c20.8-0.8,37.6-18.4,37.6-39.2c-0.8-27.2-23.2-49.6-50.4-48.8c-1.6,0-3.2,0-3.2-1.6c0-1.6,1.6-6.4,3.2-6.4
		c30.4-0.8,56,26.4,57.6,56.8C285.614,472.8,265.614,493.6,240.814,494.4z"/>
	<path style="fill:#17CCAE;" d="M231.214,396c0,1.6-1.6,3.2-3.2,3.2h-81.6c-1.6,0-3.2-1.6-3.2-3.2v-0.8c0-1.6,1.6-3.2,3.2-3.2h80.8
		c1.6,0,3.2,1.6,3.2,3.2v0.8H231.214z"/>
</g>
<g>
	<path style="fill:#0C9686;" d="M240.814,272.8c-20-0.8-37.6,15.2-37.6,36c-0.8,16.8,12.8,30.4,29.6,31.2c13.6,0,25.6-10.4,25.6-24
		c0-11.2-8.8-20.8-20-20.8c-9.6,0-17.6,7.2-17.6,16.8c0,1.6,1.6,3.2,3.2,3.2c1.6,0,3.2-1.6,3.2-3.2c0-5.6,4.8-10.4,10.4-9.6
		c7.2,0,13.6,6.4,13.6,14.4c0,9.6-8.8,17.6-18.4,17.6c-12.8,0-23.2-11.2-22.4-24c0.8-16.8,14.4-29.6,31.2-28.8
		c20.8,0.8,37.6,18.4,37.6,39.2c-0.8,27.2-21.6,48.8-48.8,48c-1.6,0-4.8,0.8-4.8,2.4c0,1.6,3.2,5.6,4.8,5.6
		c30.4,0.8,54.4-25.6,56-56C285.614,294.4,265.614,273.6,240.814,272.8z"/>
	<path style="fill:#0C9686;" d="M232.814,371.2c0-1.6-1.6-4-3.2-4h-81.6c-1.6,0-3.2,2.4-3.2,4l0,0c0,1.6,1.6,4,3.2,4h81.6
		C231.214,375.2,232.814,372.8,232.814,371.2L232.814,371.2z"/>
	<circle style="fill:#0C9686;" cx="188.814" cy="327.2" r="3.2"/>
</g>
<circle style="fill:#17CCAE;" cx="188.814" cy="439.2" r="3.2"/>
<g>
	<circle style="fill:#0C9686;" cx="264.014" cy="383.2" r="3.2"/>
	<path style="fill:#0C9686;" d="M336.814,347.2c0-1.6-1.6-4-2.4-4h-63.2c-1.6,0-2.4,2.4-2.4,4l0,0c0,1.6,1.6,4,2.4,4h63.2
		C335.214,351.2,336.814,348.8,336.814,347.2L336.814,347.2z"/>
</g>
<g>
	<path style="fill:#17CCAE;" d="M336.814,419.2c0-1.6-1.6-4-2.4-4h-63.2c-1.6,0-2.4,2.4-2.4,4l0,0c0,1.6,1.6,4,2.4,4h63.2
		C335.214,423.2,336.814,420.8,336.814,419.2L336.814,419.2z"/>
	<path style="fill:#17CCAE;" d="M371.214,494.4c-20,0.8-37.6-15.2-37.6-36c-0.8-16.8,12.8-30.4,29.6-31.2c13.6,0,25.6,10.4,25.6,24
		c0,11.2-8.8,20.8-20,20.8c-9.6,0-17.6-7.2-17.6-16.8c0-1.6,1.6-3.2,3.2-3.2s3.2,1.6,3.2,3.2c0,5.6,4.8,10.4,10.4,9.6
		c7.2,0,13.6-6.4,13.6-14.4c0-9.6-8.8-17.6-18.4-17.6c-12.8,0-23.2,11.2-22.4,24c0.8,16.8,14.4,29.6,31.2,28.8
		c20.8-0.8,37.6-18.4,37.6-39.2c-0.8-27.2-25.6-49.6-52.8-48.8c-1.6,0-3.2-0.8-3.2-2.4c0-1.6,1.6-5.6,3.2-5.6
		c30.4-0.8,58.4,26.4,59.2,56.8C416.014,472.8,396.014,493.6,371.214,494.4z"/>
	<path style="fill:#17CCAE;" d="M359.214,396c0,1.6-1.6,3.2-3.2,3.2h-81.6c-1.6,0-3.2-1.6-3.2-3.2v-0.8c0-1.6,1.6-3.2,3.2-3.2h80.8
		c1.6,0,3.2,1.6,3.2,3.2v0.8H359.214z"/>
</g>
<g>
	<path style="fill:#0C9686;" d="M371.214,272.8c-20-0.8-37.6,15.2-37.6,36c-0.8,16.8,12.8,30.4,29.6,31.2c13.6,0,25.6-10.4,25.6-24
		c0-11.2-8.8-20.8-20-20.8c-9.6,0-17.6,7.2-17.6,16.8c0,1.6,1.6,3.2,3.2,3.2s3.2-1.6,3.2-3.2c0-5.6,4.8-10.4,10.4-9.6
		c7.2,0,13.6,6.4,13.6,14.4c0,9.6-8.8,17.6-18.4,17.6c-12.8,0-23.2-11.2-22.4-24c0.8-16.8,14.4-29.6,31.2-28.8
		c20.8,0.8,37.6,18.4,37.6,39.2c-0.8,27.2-21.6,48.8-48.8,48c-1.6,0-4.8,0.8-4.8,2.4c0,1.6,3.2,5.6,4.8,5.6
		c30.4,0.8,54.4-25.6,56-56C416.014,294.4,396.014,273.6,371.214,272.8z"/>
	<path style="fill:#0C9686;" d="M363.214,371.2c0-1.6-1.6-4-3.2-4h-81.6c-1.6,0-3.2,2.4-3.2,4l0,0c0,1.6,1.6,4,3.2,4h81.6
		C361.614,375.2,363.214,372.8,363.214,371.2L363.214,371.2z"/>
	<circle style="fill:#0C9686;" cx="318.414" cy="327.2" r="3.2"/>
</g>
<circle style="fill:#17CCAE;" cx="318.414" cy="439.2" r="3.2"/>
<circle style="fill:#0C9686;" cx="394.414" cy="383.2" r="3.2"/>
<path style="fill:#DCF9F6;" d="M487.214,128.8c0-71.2-57.6-128.8-129.6-128.8c-50.4,0-93.6,28.8-115.2,71.2
	c-4.8-0.8-9.6-1.6-14.4-1.6c-33.6,0-60.8,27.2-60.8,60.8c0,1.6-1.6,2.4-1.6,4c-44.8,4.8-70.4,43.2-70.4,90.4v6.4
	c0,50.4,44,88,94.4,88h206.4c49.6,0,91.2-37.6,91.2-88v-28.8C487.214,178.4,487.214,152.8,487.214,128.8z"/>
<path style="fill:#B3DDD7;" d="M487.214,146.4c0-71.2-57.6-128.8-129.6-128.8c-50.4,0-93.6,28.8-115.2,71.2
	c-4.8-0.8-9.6-1.6-14.4-1.6c-33.6,0-60.8,27.2-60.8,60.8c0,1.6-1.6,2.4-1.6,4c-44.8,4.8-70.4,26.4-70.4,73.6v5.6
	c0,50.4,44,88,94.4,88h206.4c49.6,0,91.2-37.6,91.2-88v-28.8C487.214,178.4,487.214,170.4,487.214,146.4z"/>
<path style="fill:#A6D1CC;" d="M191.214,319.2h204.8c49.6,0,91.2-37.6,91.2-88v-28.8c0-23.2,0-33.6,0-58.4"/>
<g>
	<path style="fill:#DCF9F6;" d="M301.614,148c-4-0.8-8-1.6-12-1.6c-24,0-43.2,19.2-43.2,43.2c0,4,0.8,8,1.6,12
		C252.014,173.6,273.614,151.2,301.614,148z"/>
	<path style="fill:#DCF9F6;" d="M376.814,108c-4.8-2.4-10.4-4.8-16-5.6c-32-5.6-63.2,15.2-68.8,47.2c-0.8,5.6-0.8,11.2,0,16.8
		C303.214,130.4,338.414,105.6,376.814,108z"/>
</g>
<g>
	<path style="fill:#B1DDD9;" d="M146.414,218.4c0,2.4-1.6,4-4,4s-4-1.6-4-4s1.6-4,4-4C144.814,213.6,146.414,216,146.414,218.4z"/>
	<circle style="fill:#B1DDD9;" cx="153.614" cy="185.6" r="5.6"/>
	<circle style="fill:#B1DDD9;" cx="228.014" cy="124" r="2.4"/>
</g>
<g>
	<path style="fill:#DCF9F6;" d="M294.414,91.2c0,3.2-3.2,6.4-6.4,6.4c-3.2,0-6.4-3.2-6.4-6.4c0-3.2,3.2-6.4,6.4-6.4
		S294.414,87.2,294.414,91.2z"/>
	<path style="fill:#DCF9F6;" d="M341.614,38.4c0,1.6-1.6,3.2-3.2,3.2s-3.2-1.6-3.2-3.2c0-1.6,1.6-3.2,3.2-3.2
		S341.614,36,341.614,38.4z"/>
	<path style="fill:#DCF9F6;" d="M377.614,48c0,5.6-4,9.6-9.6,9.6s-9.6-4-9.6-9.6s4-9.6,9.6-9.6
		C372.814,38.4,377.614,42.4,377.614,48z"/>
</g>
<g>
</g>
<g>
</g>
<g>
</g>
<g>
</g>
<g>
</g>
<g>
</g>
<g>
</g>
<g>
</g>
<g>
</g>
<g>
</g>
<g>
</g>
<g>
</g>
<g>
</g>
<g>
</g>
<g>
</g>
</svg>
